<svg width="32" height="32" viewBox="0 0 32 32" fill="none" xmlns="http://www.w3.org/2000/svg">
<path d="M26.667 2.66663H5.33366C3.8609 2.66663 2.66699 3.86053 2.66699 5.33329V10.6666C2.66699 12.1394 3.8609 13.3333 5.33366 13.3333H26.667C28.1397 13.3333 29.3337 12.1394 29.3337 10.6666V5.33329C29.3337 3.86053 28.1397 2.66663 26.667 2.66663Z" stroke="#BBBAD2" stroke-width="1.5" stroke-linecap="round" stroke-linejoin="round"/>
<path d="M26.667 18.6666H5.33366C3.8609 18.6666 2.66699 19.8605 2.66699 21.3333V26.6666C2.66699 28.1394 3.8609 29.3333 5.33366 29.3333H26.667C28.1397 29.3333 29.3337 28.1394 29.3337 26.6666V21.3333C29.3337 19.8605 28.1397 18.6666 26.667 18.6666Z" stroke="#BBBAD2" stroke-width="1.5" stroke-linecap="round" stroke-linejoin="round"/>
<path d="M8 8H8.01333" stroke="#BBBAD2" stroke-width="1.5" stroke-linecap="round" stroke-linejoin="round"/>
<path d="M8 24H8.01333" stroke="#BBBAD2" stroke-width="1.5" stroke-linecap="round" stroke-linejoin="round"/>
</svg>
