<svg width="32" height="32" viewBox="0 0 32 32" fill="none" xmlns="http://www.w3.org/2000/svg">
    <path d="M26.6667 2.66663H5.33341C3.86066 2.66663 2.66675 3.86053 2.66675 5.33329V10.6666C2.66675 12.1394 3.86066 13.3333 5.33341 13.3333H26.6667C28.1395 13.3333 29.3334 12.1394 29.3334 10.6666V5.33329C29.3334 3.86053 28.1395 2.66663 26.6667 2.66663Z" stroke="#5F5F74" stroke-width="1.5" stroke-linecap="round" stroke-linejoin="round"/>
    <path d="M26.6667 18.6666H5.33341C3.86066 18.6666 2.66675 19.8605 2.66675 21.3333V26.6666C2.66675 28.1394 3.86066 29.3333 5.33341 29.3333H26.6667C28.1395 29.3333 29.3334 28.1394 29.3334 26.6666V21.3333C29.3334 19.8605 28.1395 18.6666 26.6667 18.6666Z" stroke="#5F5F74" stroke-width="1.5" stroke-linecap="round" stroke-linejoin="round"/>
    <path d="M8 8H8.01333" stroke="#5F5F74" stroke-width="1.5" stroke-linecap="round" stroke-linejoin="round"/>
    <path d="M8 24H8.01333" stroke="#5F5F74" stroke-width="1.5" stroke-linecap="round" stroke-linejoin="round"/>
    </svg>
    