<svg width="32" height="32" viewBox="0 0 32 32" fill="none" xmlns="http://www.w3.org/2000/svg">
<path d="M4 9.77773C4 6.69684 6.22044 4.06573 9.25689 3.54662L20.9227 1.55551C21.6942 1.42395 22.4622 1.81329 22.8124 2.51373L22.9067 2.70218" stroke="#BBBAD2" stroke-width="1.5" stroke-linecap="round" stroke-linejoin="round"/>
<path d="M28 20V23.5555C28 25.52 26.4089 27.1111 24.4444 27.1111H7.55556C5.59111 27.1111 4 25.52 4 23.5555V10.2222C4 8.25774 5.59111 6.66663 7.55556 6.66663H24.4444C26.4089 6.66663 28 8.25774 28 10.2222V13.7777" stroke="#BBBAD2" stroke-width="1.5" stroke-linecap="round" stroke-linejoin="round"/>
<path d="M28 19.9999H23.1111C21.3938 19.9999 20 18.6062 20 16.8888C20 15.1697 21.3938 13.7777 23.1111 13.7777H28C28.9813 13.7777 29.7778 14.5742 29.7778 15.5555V18.2222C29.7778 19.2035 28.9813 19.9999 28 19.9999Z" stroke="#BBBAD2" stroke-width="1.5" stroke-linecap="round" stroke-linejoin="round"/>
</svg>
