<svg width="13" height="12" viewBox="0 0 13 12" fill="none" xmlns="http://www.w3.org/2000/svg">
    <path fill-rule="evenodd" clip-rule="evenodd" d="M6.30005 11.0769C9.10395 11.0769 11.377 8.80391 11.377 6C11.377 3.19607 9.10396 0.923077 6.30005 0.923077C3.49612 0.923077 1.22313 3.19607 1.22313 6C1.22313 8.80391 3.49612 11.0769 6.30005 11.0769ZM12.3 6C12.3 9.31371 9.61376 12 6.30005 12C2.98632 12 0.300049 9.31371 0.300049 6C0.300049 2.68627 2.98632 0 6.30005 0C9.61375 0 12.3 2.68627 12.3 6ZM6.30005 8.92308C6.04515 8.92308 5.83851 8.71644 5.83851 8.46154V5.38462C5.83851 5.12971 6.04515 4.92308 6.30005 4.92308C6.55495 4.92308 6.76159 5.12971 6.76159 5.38462V8.46154C6.76159 8.71644 6.55495 8.92308 6.30005 8.92308ZM6.30005 4.00689C6.04515 4.00689 5.83851 3.80025 5.83851 3.54535V3.53846C5.83851 3.28356 6.04515 3.07692 6.30005 3.07692C6.55495 3.07692 6.76159 3.28356 6.76159 3.53846V3.54535C6.76159 3.80025 6.55495 4.00689 6.30005 4.00689Z" fill="#8E99B0"/>
    </svg>
    