<svg width="138" height="36" viewBox="0 0 138 36" fill="none" xmlns="http://www.w3.org/2000/svg">
    <path d="M0 18C0 8.05888 8.05888 0 18 0H120C129.941 0 138 8.05888 138 18C138 27.9411 129.941 36 120 36H18C8.05888 36 0 27.9411 0 18Z" fill="#112FF8"/>
    <path d="M25.12 23V13.2H26.296V21.936H31.252V23H25.12ZM35.9139 23.196C33.8419 23.196 32.4139 21.81 32.4139 19.668V19.486C32.4139 17.344 33.8419 15.958 35.9139 15.958C37.9859 15.958 39.4139 17.344 39.4139 19.486V19.668C39.4139 21.81 37.9859 23.196 35.9139 23.196ZM35.9139 22.202C37.3559 22.202 38.3079 21.208 38.3079 19.64V19.514C38.3079 17.946 37.3559 16.952 35.9139 16.952C34.4579 16.952 33.5199 17.946 33.5199 19.514V19.64C33.5199 21.208 34.4719 22.202 35.9139 22.202ZM41.0682 19.612V19.416C41.0682 17.274 42.5102 15.958 44.3022 15.958C45.7442 15.958 46.4582 16.616 46.8222 17.288H47.0182V16.154H48.0682V24.596C48.0682 25.338 47.6482 25.8 46.8642 25.8H42.2162V24.82H46.5702C46.8502 24.82 46.9902 24.68 46.9902 24.4V21.796H46.7942C46.4582 22.412 45.7442 23.07 44.3022 23.07C42.5102 23.07 41.0682 21.754 41.0682 19.612ZM44.5962 22.09C45.9962 22.09 46.9902 21.152 46.9902 19.57V19.458C46.9902 17.876 46.0102 16.938 44.5962 16.938C43.1822 16.938 42.1882 17.876 42.1882 19.458V19.57C42.1882 21.152 43.1822 22.09 44.5962 22.09ZM50.9326 15.09C50.4566 15.09 50.0926 14.74 50.0926 14.25C50.0926 13.746 50.4566 13.396 50.9326 13.396C51.4226 13.396 51.7866 13.746 51.7866 14.25C51.7866 14.74 51.4226 15.09 50.9326 15.09ZM50.3866 23V16.154H51.4926V23H50.3866ZM53.8183 23V16.154H54.8963V17.316H55.0923C55.3863 16.658 56.0443 16.028 57.4443 16.028C58.9563 16.028 60.1603 17.022 60.1603 18.856V23H59.0543V18.94C59.0543 17.582 58.3123 16.994 57.1643 16.994C55.8483 16.994 54.9243 17.862 54.9243 19.556V23H53.8183ZM61.2422 25.8L65.3582 13.2H66.4642L62.3482 25.8H61.2422ZM70.8058 23.196C68.6638 23.196 67.0958 22.062 67.0958 19.766V19.472H68.2578V19.766C68.2578 21.404 69.3078 22.174 70.8058 22.174C72.3318 22.174 73.1578 21.404 73.1578 20.354C73.1578 19.276 72.2898 18.912 70.9738 18.604L70.2458 18.422C68.5098 18.002 67.3338 17.33 67.3338 15.678C67.3338 14.026 68.6638 13.004 70.6378 13.004C72.6118 13.004 74.1238 14.026 74.1238 16.028V16.616H72.9618V16.028C72.9618 14.614 71.9818 14.026 70.6378 14.026C69.3358 14.026 68.4958 14.614 68.4958 15.664C68.4958 16.714 69.2658 17.064 70.5678 17.386L71.2958 17.568C72.9898 17.96 74.3198 18.604 74.3198 20.326C74.3198 22.062 72.9338 23.196 70.8058 23.196ZM76.7178 15.09C76.2418 15.09 75.8778 14.74 75.8778 14.25C75.8778 13.746 76.2418 13.396 76.7178 13.396C77.2078 13.396 77.5718 13.746 77.5718 14.25C77.5718 14.74 77.2078 15.09 76.7178 15.09ZM76.1718 23V16.154H77.2778V23H76.1718ZM79.2674 19.612V19.416C79.2674 17.274 80.7094 15.958 82.5014 15.958C83.9434 15.958 84.6574 16.616 85.0214 17.288H85.2174V16.154H86.2674V24.596C86.2674 25.338 85.8474 25.8 85.0634 25.8H80.4154V24.82H84.7694C85.0494 24.82 85.1894 24.68 85.1894 24.4V21.796H84.9934C84.6574 22.412 83.9434 23.07 82.5014 23.07C80.7094 23.07 79.2674 21.754 79.2674 19.612ZM82.7954 22.09C84.1954 22.09 85.1894 21.152 85.1894 19.57V19.458C85.1894 17.876 84.2094 16.938 82.7954 16.938C81.3814 16.938 80.3874 17.876 80.3874 19.458V19.57C80.3874 21.152 81.3814 22.09 82.7954 22.09ZM88.5858 23V16.154H89.6638V17.316H89.8598C90.1538 16.658 90.8118 16.028 92.2118 16.028C93.7238 16.028 94.9278 17.022 94.9278 18.856V23H93.8218V18.94C93.8218 17.582 93.0798 16.994 91.9318 16.994C90.6158 16.994 89.6918 17.862 89.6918 19.556V23H88.5858ZM99.6804 23.126C98.1684 23.126 96.9784 22.132 96.9784 20.298V16.154H98.0844V20.214C98.0844 21.572 98.8124 22.16 99.9744 22.16C101.276 22.16 102.214 21.292 102.214 19.598V16.154H103.32V23H102.242V21.838H102.046C101.738 22.496 101.08 23.126 99.6804 23.126ZM105.635 25.8V16.154H106.713V17.288H106.909C107.273 16.602 108.001 15.958 109.429 15.958C111.207 15.958 112.663 17.288 112.663 19.486V19.668C112.663 21.852 111.221 23.196 109.429 23.196C108.001 23.196 107.273 22.552 106.937 21.922H106.741V25.8H105.635ZM109.135 22.216C110.549 22.216 111.529 21.264 111.529 19.64V19.514C111.529 17.89 110.535 16.938 109.135 16.938C107.721 16.938 106.727 17.89 106.727 19.514V19.64C106.727 21.264 107.721 22.216 109.135 22.216Z" fill="white"/>
    </svg>
    