<svg width="40" height="40" viewBox="0 0 40 40" fill="none" xmlns="http://www.w3.org/2000/svg">
<circle cx="20" cy="20" r="20" fill="#27282D"/>
<mask id="mask0_9603_26207" style="mask-type:alpha" maskUnits="userSpaceOnUse" x="0" y="0" width="40" height="40">
<circle cx="20" cy="20" r="20" fill="#27282D"/>
</mask>
<g mask="url(#mask0_9603_26207)">
<path opacity="0.21" d="M28.6796 28.225C30.7341 28.225 32.3996 29.9012 32.3996 31.969V33.217C32.3996 38.1377 27.788 43.201 19.9996 43.201C12.2112 43.201 7.59961 38.1377 7.59961 33.217V31.969C7.59961 29.9012 9.26511 28.225 11.3196 28.225H28.6796ZM19.9996 12.001C23.7662 12.001 26.8196 15.0741 26.8196 18.865C26.8196 22.6559 23.7662 25.729 19.9996 25.729C16.233 25.729 13.1796 22.6559 13.1796 18.865C13.1796 15.0741 16.233 12.001 19.9996 12.001Z" fill="#6B7485"/>
</g>
</svg>
