<svg width="17" height="18" viewBox="0 0 17 18" fill="none" xmlns="http://www.w3.org/2000/svg">
<path d="M6.86538 2.89286V3.21429H10.1346V2.89286C10.1346 2.46662 9.9624 2.05783 9.65585 1.75644C9.3493 1.45504 8.93353 1.28571 8.5 1.28571C8.06647 1.28571 7.6507 1.45504 7.34415 1.75644C7.0376 2.05783 6.86538 2.46662 6.86538 2.89286ZM5.55769 3.21429V2.89286C5.55769 2.12562 5.86768 1.38981 6.41947 0.847298C6.97126 0.304782 7.71965 0 8.5 0C9.28035 0 10.0287 0.304782 10.5805 0.847298C11.1323 1.38981 11.4423 2.12562 11.4423 2.89286V3.21429H16.3462C16.5196 3.21429 16.6859 3.28202 16.8085 3.40257C16.9311 3.52313 17 3.68665 17 3.85714C17 4.02764 16.9311 4.19115 16.8085 4.31171C16.6859 4.43227 16.5196 4.5 16.3462 4.5H15.3602L14.1231 15.1509C14.0319 15.9353 13.6502 16.6592 13.0509 17.1847C12.4515 17.7102 11.6765 18.0004 10.8735 18H6.12654C5.32353 18.0004 4.54846 17.7102 3.94913 17.1847C3.34981 16.6592 2.96815 15.9353 2.87692 15.1509L1.63985 4.5H0.653846C0.480435 4.5 0.314127 4.43227 0.191507 4.31171C0.0688871 4.19115 0 4.02764 0 3.85714C0 3.68665 0.0688871 3.52313 0.191507 3.40257C0.314127 3.28202 0.480435 3.21429 0.653846 3.21429H5.55769ZM4.17677 15.0043C4.23136 15.4748 4.46012 15.9091 4.81945 16.2245C5.17878 16.5398 5.64357 16.7142 6.12523 16.7143H10.8741C11.3558 16.7142 11.8206 16.5398 12.1799 16.2245C12.5392 15.9091 12.768 15.4748 12.8226 15.0043L14.0446 4.5H2.95604L4.17677 15.0043ZM6.53846 6.75C6.71187 6.75 6.87818 6.81773 7.0008 6.93829C7.12342 7.05885 7.19231 7.22236 7.19231 7.39286V13.8214C7.19231 13.9919 7.12342 14.1554 7.0008 14.276C6.87818 14.3966 6.71187 14.4643 6.53846 14.4643C6.36505 14.4643 6.19874 14.3966 6.07612 14.276C5.9535 14.1554 5.88462 13.9919 5.88462 13.8214V7.39286C5.88462 7.22236 5.9535 7.05885 6.07612 6.93829C6.19874 6.81773 6.36505 6.75 6.53846 6.75ZM11.1154 7.39286C11.1154 7.22236 11.0465 7.05885 10.9239 6.93829C10.8013 6.81773 10.6349 6.75 10.4615 6.75C10.2881 6.75 10.1218 6.81773 9.9992 6.93829C9.87658 7.05885 9.80769 7.22236 9.80769 7.39286V13.8214C9.80769 13.9919 9.87658 14.1554 9.9992 14.276C10.1218 14.3966 10.2881 14.4643 10.4615 14.4643C10.6349 14.4643 10.8013 14.3966 10.9239 14.276C11.0465 14.1554 11.1154 13.9919 11.1154 13.8214V7.39286Z" fill="#5F5F74"/>
</svg>
