<svg width="44" height="44" viewBox="0 0 44 44" fill="none" xmlns="http://www.w3.org/2000/svg">
    <path fill-rule="evenodd" clip-rule="evenodd" d="M22 0.5C10.1259 0.5 0.5 10.1259 0.5 22C0.5 33.8742 10.1259 43.5 22 43.5C33.8742 43.5 43.5 33.8742 43.5 22C43.5 10.1259 33.8742 0.5 22 0.5ZM13.0609 21.9394C12.4751 21.3536 11.5254 21.3536 10.9396 21.9394C10.3538 22.5252 10.3538 23.4748 10.9396 24.0606L16.9396 30.0606C17.5254 30.6464 18.4752 30.6464 19.0608 30.0606L33.0608 16.0607C33.6466 15.4749 33.6466 14.5251 33.0608 13.9393C32.475 13.3536 31.5254 13.3536 30.9396 13.9393L18.0002 26.8786L13.0609 21.9394Z" fill="#009545"/>
    </svg>
    