<svg width="40" height="40" viewBox="0 0 40 40" fill="none" xmlns="http://www.w3.org/2000/svg">
<circle cx="20" cy="20" r="20" fill="#F1F3F5"/>
<mask id="mask0_8899_19670" style="mask-type:alpha" maskUnits="userSpaceOnUse" x="0" y="0" width="40" height="40">
<circle cx="20" cy="20" r="20" fill="#F1F3F5"/>
</mask>
<g mask="url(#mask0_8899_19670)">
<path opacity="0.21" d="M28.6799 28.225C30.7344 28.225 32.3999 29.9012 32.3999 31.969V33.217C32.3999 38.1377 27.7883 43.201 19.9999 43.201C12.2114 43.201 7.59985 38.1377 7.59985 33.217V31.969C7.59985 29.9012 9.26535 28.225 11.3199 28.225H28.6799ZM19.9999 12.001C23.7664 12.001 26.8199 15.0741 26.8199 18.865C26.8199 22.6559 23.7664 25.729 19.9999 25.729C16.2333 25.729 13.1799 22.6559 13.1799 18.865C13.1799 15.0741 16.2333 12.001 19.9999 12.001Z" fill="#B2BACB"/>
</g>
</svg>
