<svg width="16" height="16" viewBox="0 0 16 16" fill="none" xmlns="http://www.w3.org/2000/svg">
<path fill-rule="evenodd" clip-rule="evenodd" d="M2.14838 1.37146C1.94229 1.37146 1.74463 1.45334 1.59891 1.59908C1.45318 1.74483 1.37131 1.9425 1.37131 2.14862V8.73162C1.37131 8.93774 1.45318 9.13541 1.59891 9.28116C1.74464 9.4269 1.94229 9.50878 2.14838 9.50878H2.87974C3.25842 9.50878 3.5654 9.8158 3.5654 10.1945C3.5654 10.5732 3.25842 10.8802 2.87974 10.8802H2.14838C1.57859 10.8802 1.03214 10.6539 0.629246 10.2509C0.226346 9.84798 0 9.30147 0 8.73162V2.14862C0 1.57877 0.226346 1.03226 0.629246 0.629316C1.03215 0.226372 1.57859 0 2.14838 0H8.73065C9.30043 0 9.84688 0.226372 10.2498 0.629316C10.6527 1.03226 10.879 1.57877 10.879 2.14862V2.88006C10.879 3.25878 10.5721 3.56579 10.1934 3.56579C9.8147 3.56579 9.50772 3.25878 9.50772 2.88006V2.14862C9.50772 1.9425 9.42585 1.74483 9.28012 1.59908C9.13439 1.45334 8.93674 1.37146 8.73065 1.37146H2.14838ZM7.26935 6.49122C6.84019 6.49122 6.49228 6.83916 6.49228 7.26838V13.8514C6.49228 14.2806 6.84019 14.6285 7.26935 14.6285H13.8516C14.2808 14.6285 14.6287 14.2806 14.6287 13.8514V7.26838C14.6287 6.83916 14.2808 6.49122 13.8516 6.49122H7.26935ZM5.12097 7.26838C5.12097 6.08173 6.08283 5.11976 7.26935 5.11976H13.8516C15.0381 5.11976 16 6.08173 16 7.26838V13.8514C16 15.038 15.0381 16 13.8516 16H7.26935C6.08283 16 5.12097 15.038 5.12097 13.8514V7.26838Z" fill="#BBBAD2"/>
</svg>
