<svg width="24" height="24" viewBox="0 0 24 24" fill="none" xmlns="http://www.w3.org/2000/svg">
<path d="M8.16667 5H5.66667C5.22464 5 4.80072 5.17559 4.48816 5.48816C4.17559 5.80072 4 6.22464 4 6.66667V9.16667M19 9.16667V6.66667C19 6.22464 18.8244 5.80072 18.5118 5.48816C18.1993 5.17559 17.7754 5 17.3333 5H14.8333M14.8333 20H17.3333C17.7754 20 18.1993 19.8244 18.5118 19.5118C18.8244 19.1993 19 18.7754 19 18.3333V15.8333M4 15.8333V18.3333C4 18.7754 4.17559 19.1993 4.48816 19.5118C4.80072 19.8244 5.22464 20 5.66667 20H8.16667" stroke="white" stroke-width="1.5" stroke-linecap="round" stroke-linejoin="round"/>
</svg>
